<?xml version="1.0" encoding="utf-8" ?>
<svg baseProfile="full" height="100%" version="1.1" width="100%" xmlns="http://www.w3.org/2000/svg" xmlns:ev="http://www.w3.org/2001/xml-events" xmlns:xlink="http://www.w3.org/1999/xlink"><defs /><line stroke="rgb(5%,5%,5%)" stroke-linecap="square" stroke-opacity="0.99" stroke-width="3" x1="292" x2="292" y1="292" y2="302" /><line stroke="rgb(5%,5%,5%)" stroke-linecap="square" stroke-opacity="0.99" stroke-width="3" x1="292" x2="302" y1="302" y2="302" /><line stroke="rgb(5%,5%,5%)" stroke-linecap="square" stroke-opacity="0.99" stroke-width="3" x1="302" x2="302" y1="302" y2="282" /><line stroke="rgb(5%,5%,5%)" stroke-linecap="square" stroke-opacity="0.99" stroke-width="3" x1="302" x2="282" y1="282" y2="282" /><line stroke="rgb(5%,5%,5%)" stroke-linecap="square" stroke-opacity="0.99" stroke-width="3" x1="282" x2="282" y1="282" y2="312" /><line stroke="rgb(5%,5%,5%)" stroke-linecap="square" stroke-opacity="0.99" stroke-width="3" x1="282" x2="312" y1="312" y2="312" /><line stroke="rgb(5%,5%,5%)" stroke-linecap="square" stroke-opacity="0.99" stroke-width="3" x1="312" x2="312" y1="312" y2="272" /><line stroke="rgb(5%,5%,5%)" stroke-linecap="square" stroke-opacity="0.99" stroke-width="3" x1="312" x2="272" y1="272" y2="272" /><line stroke="rgb(5%,5%,5%)" stroke-linecap="square" stroke-opacity="0.99" stroke-width="3" x1="272" x2="272" y1="272" y2="322" /><line stroke="rgb(5%,5%,5%)" stroke-linecap="square" stroke-opacity="0.99" stroke-width="3" x1="272" x2="322" y1="322" y2="322" /><line stroke="rgb(5%,5%,5%)" stroke-linecap="square" stroke-opacity="0.99" stroke-width="3" x1="322" x2="322" y1="322" y2="262" /><line stroke="rgb(5%,5%,5%)" stroke-linecap="square" stroke-opacity="0.99" stroke-width="3" x1="322" x2="262" y1="262" y2="262" /><line stroke="rgb(5%,5%,5%)" stroke-linecap="square" stroke-opacity="0.99" stroke-width="3" x1="262" x2="262" y1="262" y2="262" /><line stroke="rgb(5%,5%,5%)" stroke-linecap="square" stroke-opacity="0.99" stroke-width="3" x1="262" x2="262" y1="262" y2="332" /><line stroke="rgb(5%,5%,5%)" stroke-linecap="square" stroke-opacity="0.99" stroke-width="3" x1="262" x2="332" y1="332" y2="332" /><line stroke="rgb(5%,5%,5%)" stroke-linecap="square" stroke-opacity="0.99" stroke-width="3" x1="332" x2="332" y1="332" y2="252" /><line stroke="rgb(5%,5%,5%)" stroke-linecap="square" stroke-opacity="0.99" stroke-width="3" x1="332" x2="252" y1="252" y2="252" /><line stroke="rgb(5%,5%,5%)" stroke-linecap="square" stroke-opacity="0.99" stroke-width="3" x1="252" x2="252" y1="252" y2="342" /><line stroke="rgb(5%,5%,5%)" stroke-linecap="square" stroke-opacity="0.99" stroke-width="3" x1="252" x2="342" y1="342" y2="342" /><line stroke="rgb(5%,5%,5%)" stroke-linecap="square" stroke-opacity="0.99" stroke-width="3" x1="342" x2="342" y1="342" y2="242" /><line stroke="rgb(5%,5%,5%)" stroke-linecap="square" stroke-opacity="0.99" stroke-width="3" x1="342" x2="242" y1="242" y2="242" /><line stroke="rgb(5%,5%,5%)" stroke-linecap="square" stroke-opacity="0.99" stroke-width="3" x1="242" x2="242" y1="242" y2="242" /><line stroke="rgb(5%,5%,5%)" stroke-linecap="square" stroke-opacity="0.99" stroke-width="3" x1="242" x2="242" y1="242" y2="352" /><line stroke="rgb(5%,5%,5%)" stroke-linecap="square" stroke-opacity="0.99" stroke-width="3" x1="242" x2="352" y1="352" y2="352" /><line stroke="rgb(5%,5%,5%)" stroke-linecap="square" stroke-opacity="0.99" stroke-width="3" x1="352" x2="352" y1="352" y2="232" /><line stroke="rgb(5%,5%,5%)" stroke-linecap="square" stroke-opacity="0.99" stroke-width="3" x1="352" x2="232" y1="232" y2="232" /><line stroke="rgb(5%,5%,5%)" stroke-linecap="square" stroke-opacity="0.99" stroke-width="3" x1="232" x2="232" y1="232" y2="362" /><line stroke="rgb(5%,5%,5%)" stroke-linecap="square" stroke-opacity="0.99" stroke-width="3" x1="232" x2="362" y1="362" y2="362" /><line stroke="rgb(5%,5%,5%)" stroke-linecap="square" stroke-opacity="0.99" stroke-width="3" x1="362" x2="362" y1="362" y2="222" /><line stroke="rgb(5%,5%,5%)" stroke-linecap="square" stroke-opacity="0.99" stroke-width="3" x1="362" x2="222" y1="222" y2="222" /><line stroke="rgb(5%,5%,5%)" stroke-linecap="square" stroke-opacity="0.99" stroke-width="3" x1="222" x2="222" y1="222" y2="222" /><line stroke="rgb(5%,5%,5%)" stroke-linecap="square" stroke-opacity="0.99" stroke-width="3" x1="222" x2="222" y1="222" y2="292" /><line stroke="rgb(5%,5%,5%)" stroke-linecap="square" stroke-opacity="0.99" stroke-width="3" x1="222" x2="192" y1="292" y2="292" /><line stroke="rgb(5%,5%,5%)" stroke-linecap="square" stroke-opacity="0.99" stroke-width="3" x1="192" x2="192" y1="292" y2="192" /><line stroke="rgb(5%,5%,5%)" stroke-linecap="square" stroke-opacity="0.99" stroke-width="3" x1="192" x2="282" y1="192" y2="192" /><line stroke="rgb(5%,5%,5%)" stroke-linecap="square" stroke-opacity="0.99" stroke-width="3" x1="282" x2="282" y1="192" y2="202" /><line stroke="rgb(5%,5%,5%)" stroke-linecap="square" stroke-opacity="0.99" stroke-width="3" x1="282" x2="202" y1="202" y2="202" /><line stroke="rgb(5%,5%,5%)" stroke-linecap="square" stroke-opacity="0.99" stroke-width="3" x1="202" x2="202" y1="202" y2="282" /><line stroke="rgb(5%,5%,5%)" stroke-linecap="square" stroke-opacity="0.99" stroke-width="3" x1="202" x2="212" y1="282" y2="282" /><line stroke="rgb(5%,5%,5%)" stroke-linecap="square" stroke-opacity="0.99" stroke-width="3" x1="212" x2="212" y1="282" y2="212" /><line stroke="rgb(5%,5%,5%)" stroke-linecap="square" stroke-opacity="0.99" stroke-width="3" x1="212" x2="292" y1="212" y2="212" /><line stroke="rgb(5%,5%,5%)" stroke-linecap="square" stroke-opacity="0.99" stroke-width="3" x1="292" x2="292" y1="212" y2="192" /><line stroke="rgb(5%,5%,5%)" stroke-linecap="square" stroke-opacity="0.99" stroke-width="3" x1="292" x2="392" y1="192" y2="192" /><line stroke="rgb(5%,5%,5%)" stroke-linecap="square" stroke-opacity="0.99" stroke-width="3" x1="392" x2="392" y1="192" y2="282" /><line stroke="rgb(5%,5%,5%)" stroke-linecap="square" stroke-opacity="0.99" stroke-width="3" x1="392" x2="382" y1="282" y2="282" /><line stroke="rgb(5%,5%,5%)" stroke-linecap="square" stroke-opacity="0.99" stroke-width="3" x1="382" x2="382" y1="282" y2="202" /><line stroke="rgb(5%,5%,5%)" stroke-linecap="square" stroke-opacity="0.99" stroke-width="3" x1="382" x2="302" y1="202" y2="202" /><line stroke="rgb(5%,5%,5%)" stroke-linecap="square" stroke-opacity="0.99" stroke-width="3" x1="302" x2="302" y1="202" y2="212" /><line stroke="rgb(5%,5%,5%)" stroke-linecap="square" stroke-opacity="0.99" stroke-width="3" x1="302" x2="372" y1="212" y2="212" /><line stroke="rgb(5%,5%,5%)" stroke-linecap="square" stroke-opacity="0.99" stroke-width="3" x1="372" x2="372" y1="212" y2="372" /><line stroke="rgb(5%,5%,5%)" stroke-linecap="square" stroke-opacity="0.99" stroke-width="3" x1="372" x2="292" y1="372" y2="372" /><line stroke="rgb(5%,5%,5%)" stroke-linecap="square" stroke-opacity="0.99" stroke-width="3" x1="292" x2="292" y1="372" y2="402" /><line stroke="rgb(5%,5%,5%)" stroke-linecap="square" stroke-opacity="0.99" stroke-width="3" x1="292" x2="402" y1="402" y2="402" /><line stroke="rgb(5%,5%,5%)" stroke-linecap="square" stroke-opacity="0.99" stroke-width="3" x1="402" x2="402" y1="402" y2="302" /><line stroke="rgb(5%,5%,5%)" stroke-linecap="square" stroke-opacity="0.99" stroke-width="3" x1="402" x2="392" y1="302" y2="302" /><line stroke="rgb(5%,5%,5%)" stroke-linecap="square" stroke-opacity="0.99" stroke-width="3" x1="392" x2="392" y1="302" y2="392" /><line stroke="rgb(5%,5%,5%)" stroke-linecap="square" stroke-opacity="0.99" stroke-width="3" x1="392" x2="302" y1="392" y2="392" /><line stroke="rgb(5%,5%,5%)" stroke-linecap="square" stroke-opacity="0.99" stroke-width="3" x1="302" x2="302" y1="392" y2="382" /><line stroke="rgb(5%,5%,5%)" stroke-linecap="square" stroke-opacity="0.99" stroke-width="3" x1="302" x2="382" y1="382" y2="382" /><line stroke="rgb(5%,5%,5%)" stroke-linecap="square" stroke-opacity="0.99" stroke-width="3" x1="382" x2="382" y1="382" y2="292" /><line stroke="rgb(5%,5%,5%)" stroke-linecap="square" stroke-opacity="0.99" stroke-width="3" x1="382" x2="402" y1="292" y2="292" /><line stroke="rgb(5%,5%,5%)" stroke-linecap="square" stroke-opacity="0.99" stroke-width="3" x1="402" x2="402" y1="292" y2="182" /><line stroke="rgb(5%,5%,5%)" stroke-linecap="square" stroke-opacity="0.99" stroke-width="3" x1="402" x2="182" y1="182" y2="182" /><line stroke="rgb(5%,5%,5%)" stroke-linecap="square" stroke-opacity="0.99" stroke-width="3" x1="182" x2="182" y1="182" y2="412" /><line stroke="rgb(5%,5%,5%)" stroke-linecap="square" stroke-opacity="0.99" stroke-width="3" x1="182" x2="272" y1="412" y2="412" /><line stroke="rgb(5%,5%,5%)" stroke-linecap="square" stroke-opacity="0.99" stroke-width="3" x1="272" x2="272" y1="412" y2="402" /><line stroke="rgb(5%,5%,5%)" stroke-linecap="square" stroke-opacity="0.99" stroke-width="3" x1="272" x2="192" y1="402" y2="402" /><line stroke="rgb(5%,5%,5%)" stroke-linecap="square" stroke-opacity="0.99" stroke-width="3" x1="192" x2="192" y1="402" y2="302" /><line stroke="rgb(5%,5%,5%)" stroke-linecap="square" stroke-opacity="0.99" stroke-width="3" x1="192" x2="202" y1="302" y2="302" /><line stroke="rgb(5%,5%,5%)" stroke-linecap="square" stroke-opacity="0.99" stroke-width="3" x1="202" x2="202" y1="302" y2="392" /><line stroke="rgb(5%,5%,5%)" stroke-linecap="square" stroke-opacity="0.99" stroke-width="3" x1="202" x2="272" y1="392" y2="392" /><line stroke="rgb(5%,5%,5%)" stroke-linecap="square" stroke-opacity="0.99" stroke-width="3" x1="272" x2="272" y1="392" y2="382" /><line stroke="rgb(5%,5%,5%)" stroke-linecap="square" stroke-opacity="0.99" stroke-width="3" x1="272" x2="212" y1="382" y2="382" /><line stroke="rgb(5%,5%,5%)" stroke-linecap="square" stroke-opacity="0.99" stroke-width="3" x1="212" x2="212" y1="382" y2="302" /><line stroke="rgb(5%,5%,5%)" stroke-linecap="square" stroke-opacity="0.99" stroke-width="3" x1="212" x2="222" y1="302" y2="302" /><line stroke="rgb(5%,5%,5%)" stroke-linecap="square" stroke-opacity="0.99" stroke-width="3" x1="222" x2="222" y1="302" y2="372" /><line stroke="rgb(5%,5%,5%)" stroke-linecap="square" stroke-opacity="0.99" stroke-width="3" x1="222" x2="282" y1="372" y2="372" /><line stroke="rgb(5%,5%,5%)" stroke-linecap="square" stroke-opacity="0.99" stroke-width="3" x1="282" x2="282" y1="372" y2="412" /><line stroke="rgb(5%,5%,5%)" stroke-linecap="square" stroke-opacity="0.99" stroke-width="3" x1="282" x2="412" y1="412" y2="412" /><line stroke="rgb(5%,5%,5%)" stroke-linecap="square" stroke-opacity="0.99" stroke-width="3" x1="412" x2="412" y1="412" y2="172" /><line stroke="rgb(5%,5%,5%)" stroke-linecap="square" stroke-opacity="0.99" stroke-width="3" x1="412" x2="172" y1="172" y2="172" /><line stroke="rgb(5%,5%,5%)" stroke-linecap="square" stroke-opacity="0.99" stroke-width="3" x1="172" x2="172" y1="172" y2="172" /><line stroke="rgb(5%,5%,5%)" stroke-linecap="square" stroke-opacity="0.99" stroke-width="3" x1="172" x2="172" y1="172" y2="422" /><line stroke="rgb(5%,5%,5%)" stroke-linecap="square" stroke-opacity="0.99" stroke-width="3" x1="172" x2="422" y1="422" y2="422" /><line stroke="rgb(5%,5%,5%)" stroke-linecap="square" stroke-opacity="0.99" stroke-width="3" x1="422" x2="422" y1="422" y2="162" /><line stroke="rgb(5%,5%,5%)" stroke-linecap="square" stroke-opacity="0.99" stroke-width="3" x1="422" x2="162" y1="162" y2="162" /><line stroke="rgb(5%,5%,5%)" stroke-linecap="square" stroke-opacity="0.99" stroke-width="3" x1="162" x2="162" y1="162" y2="432" /><line stroke="rgb(5%,5%,5%)" stroke-linecap="square" stroke-opacity="0.99" stroke-width="3" x1="162" x2="432" y1="432" y2="432" /><line stroke="rgb(5%,5%,5%)" stroke-linecap="square" stroke-opacity="0.99" stroke-width="3" x1="432" x2="432" y1="432" y2="152" /><line stroke="rgb(5%,5%,5%)" stroke-linecap="square" stroke-opacity="0.99" stroke-width="3" x1="432" x2="152" y1="152" y2="152" /><line stroke="rgb(5%,5%,5%)" stroke-linecap="square" stroke-opacity="0.99" stroke-width="3" x1="152" x2="152" y1="152" y2="152" /><line stroke="rgb(5%,5%,5%)" stroke-linecap="square" stroke-opacity="0.99" stroke-width="3" x1="152" x2="152" y1="152" y2="442" /><line stroke="rgb(5%,5%,5%)" stroke-linecap="square" stroke-opacity="0.99" stroke-width="3" x1="152" x2="287" y1="442" y2="442" /><line stroke="rgb(5%,5%,5%)" stroke-linecap="square" stroke-opacity="0.99" stroke-width="3" x1="287" x2="287" y1="442" y2="452" /><line stroke="rgb(5%,5%,5%)" stroke-linecap="square" stroke-opacity="0.99" stroke-width="3" x1="287" x2="142" y1="452" y2="452" /><line stroke="rgb(5%,5%,5%)" stroke-linecap="square" stroke-opacity="0.99" stroke-width="3" x1="142" x2="142" y1="452" y2="297" /><line stroke="rgb(5%,5%,5%)" stroke-linecap="square" stroke-opacity="0.99" stroke-width="3" x1="142" x2="132" y1="297" y2="297" /><line stroke="rgb(5%,5%,5%)" stroke-linecap="square" stroke-opacity="0.99" stroke-width="3" x1="132" x2="132" y1="297" y2="462" /><line stroke="rgb(5%,5%,5%)" stroke-linecap="square" stroke-opacity="0.99" stroke-width="3" x1="132" x2="462" y1="462" y2="462" /><line stroke="rgb(5%,5%,5%)" stroke-linecap="square" stroke-opacity="0.99" stroke-width="3" x1="462" x2="462" y1="462" y2="297" /><line stroke="rgb(5%,5%,5%)" stroke-linecap="square" stroke-opacity="0.99" stroke-width="3" x1="462" x2="452" y1="297" y2="297" /><line stroke="rgb(5%,5%,5%)" stroke-linecap="square" stroke-opacity="0.99" stroke-width="3" x1="452" x2="452" y1="297" y2="452" /><line stroke="rgb(5%,5%,5%)" stroke-linecap="square" stroke-opacity="0.99" stroke-width="3" x1="452" x2="297" y1="452" y2="452" /><line stroke="rgb(5%,5%,5%)" stroke-linecap="square" stroke-opacity="0.99" stroke-width="3" x1="297" x2="297" y1="452" y2="442" /><line stroke="rgb(5%,5%,5%)" stroke-linecap="square" stroke-opacity="0.99" stroke-width="3" x1="297" x2="442" y1="442" y2="442" /><line stroke="rgb(5%,5%,5%)" stroke-linecap="square" stroke-opacity="0.99" stroke-width="3" x1="442" x2="442" y1="442" y2="142" /><line stroke="rgb(5%,5%,5%)" stroke-linecap="square" stroke-opacity="0.99" stroke-width="3" x1="442" x2="302" y1="142" y2="142" /><line stroke="rgb(5%,5%,5%)" stroke-linecap="square" stroke-opacity="0.99" stroke-width="3" x1="302" x2="302" y1="142" y2="132" /><line stroke="rgb(5%,5%,5%)" stroke-linecap="square" stroke-opacity="0.99" stroke-width="3" x1="302" x2="452" y1="132" y2="132" /><line stroke="rgb(5%,5%,5%)" stroke-linecap="square" stroke-opacity="0.99" stroke-width="3" x1="452" x2="452" y1="132" y2="287" /><line stroke="rgb(5%,5%,5%)" stroke-linecap="square" stroke-opacity="0.99" stroke-width="3" x1="452" x2="462" y1="287" y2="287" /><line stroke="rgb(5%,5%,5%)" stroke-linecap="square" stroke-opacity="0.99" stroke-width="3" x1="462" x2="462" y1="287" y2="122" /><line stroke="rgb(5%,5%,5%)" stroke-linecap="square" stroke-opacity="0.99" stroke-width="3" x1="462" x2="292" y1="122" y2="122" /><line stroke="rgb(5%,5%,5%)" stroke-linecap="square" stroke-opacity="0.99" stroke-width="3" x1="292" x2="292" y1="122" y2="142" /><line stroke="rgb(5%,5%,5%)" stroke-linecap="square" stroke-opacity="0.99" stroke-width="3" x1="292" x2="142" y1="142" y2="142" /><line stroke="rgb(5%,5%,5%)" stroke-linecap="square" stroke-opacity="0.99" stroke-width="3" x1="142" x2="142" y1="142" y2="287" /><line stroke="rgb(5%,5%,5%)" stroke-linecap="square" stroke-opacity="0.99" stroke-width="3" x1="142" x2="132" y1="287" y2="287" /><line stroke="rgb(5%,5%,5%)" stroke-linecap="square" stroke-opacity="0.99" stroke-width="3" x1="132" x2="132" y1="287" y2="132" /><line stroke="rgb(5%,5%,5%)" stroke-linecap="square" stroke-opacity="0.99" stroke-width="3" x1="132" x2="282" y1="132" y2="132" /><line stroke="rgb(5%,5%,5%)" stroke-linecap="square" stroke-opacity="0.99" stroke-width="3" x1="282" x2="282" y1="132" y2="122" /><line stroke="rgb(5%,5%,5%)" stroke-linecap="square" stroke-opacity="0.99" stroke-width="3" x1="282" x2="122" y1="122" y2="122" /><line stroke="rgb(5%,5%,5%)" stroke-linecap="square" stroke-opacity="0.99" stroke-width="3" x1="122" x2="122" y1="122" y2="122" /><line stroke="rgb(5%,5%,5%)" stroke-linecap="square" stroke-opacity="0.99" stroke-width="3" x1="122" x2="122" y1="122" y2="472" /><line stroke="rgb(5%,5%,5%)" stroke-linecap="square" stroke-opacity="0.99" stroke-width="3" x1="122" x2="287" y1="472" y2="472" /><line stroke="rgb(5%,5%,5%)" stroke-linecap="square" stroke-opacity="0.99" stroke-width="3" x1="287" x2="287" y1="472" y2="482" /><line stroke="rgb(5%,5%,5%)" stroke-linecap="square" stroke-opacity="0.99" stroke-width="3" x1="287" x2="112" y1="482" y2="482" /><line stroke="rgb(5%,5%,5%)" stroke-linecap="square" stroke-opacity="0.99" stroke-width="3" x1="112" x2="112" y1="482" y2="297" /><line stroke="rgb(5%,5%,5%)" stroke-linecap="square" stroke-opacity="0.99" stroke-width="3" x1="112" x2="102" y1="297" y2="297" /><line stroke="rgb(5%,5%,5%)" stroke-linecap="square" stroke-opacity="0.99" stroke-width="3" x1="102" x2="102" y1="297" y2="492" /><line stroke="rgb(5%,5%,5%)" stroke-linecap="square" stroke-opacity="0.99" stroke-width="3" x1="102" x2="492" y1="492" y2="492" /><line stroke="rgb(5%,5%,5%)" stroke-linecap="square" stroke-opacity="0.99" stroke-width="3" x1="492" x2="492" y1="492" y2="297" /><line stroke="rgb(5%,5%,5%)" stroke-linecap="square" stroke-opacity="0.99" stroke-width="3" x1="492" x2="482" y1="297" y2="297" /><line stroke="rgb(5%,5%,5%)" stroke-linecap="square" stroke-opacity="0.99" stroke-width="3" x1="482" x2="482" y1="297" y2="482" /><line stroke="rgb(5%,5%,5%)" stroke-linecap="square" stroke-opacity="0.99" stroke-width="3" x1="482" x2="297" y1="482" y2="482" /><line stroke="rgb(5%,5%,5%)" stroke-linecap="square" stroke-opacity="0.99" stroke-width="3" x1="297" x2="297" y1="482" y2="472" /><line stroke="rgb(5%,5%,5%)" stroke-linecap="square" stroke-opacity="0.99" stroke-width="3" x1="297" x2="472" y1="472" y2="472" /><line stroke="rgb(5%,5%,5%)" stroke-linecap="square" stroke-opacity="0.99" stroke-width="3" x1="472" x2="472" y1="472" y2="112" /><line stroke="rgb(5%,5%,5%)" stroke-linecap="square" stroke-opacity="0.99" stroke-width="3" x1="472" x2="302" y1="112" y2="112" /><line stroke="rgb(5%,5%,5%)" stroke-linecap="square" stroke-opacity="0.99" stroke-width="3" x1="302" x2="302" y1="112" y2="102" /><line stroke="rgb(5%,5%,5%)" stroke-linecap="square" stroke-opacity="0.99" stroke-width="3" x1="302" x2="482" y1="102" y2="102" /><line stroke="rgb(5%,5%,5%)" stroke-linecap="square" stroke-opacity="0.99" stroke-width="3" x1="482" x2="482" y1="102" y2="287" /><line stroke="rgb(5%,5%,5%)" stroke-linecap="square" stroke-opacity="0.99" stroke-width="3" x1="482" x2="492" y1="287" y2="287" /><line stroke="rgb(5%,5%,5%)" stroke-linecap="square" stroke-opacity="0.99" stroke-width="3" x1="492" x2="492" y1="287" y2="92" /><line stroke="rgb(5%,5%,5%)" stroke-linecap="square" stroke-opacity="0.99" stroke-width="3" x1="492" x2="292" y1="92" y2="92" /><line stroke="rgb(5%,5%,5%)" stroke-linecap="square" stroke-opacity="0.99" stroke-width="3" x1="292" x2="292" y1="92" y2="112" /><line stroke="rgb(5%,5%,5%)" stroke-linecap="square" stroke-opacity="0.99" stroke-width="3" x1="292" x2="112" y1="112" y2="112" /><line stroke="rgb(5%,5%,5%)" stroke-linecap="square" stroke-opacity="0.99" stroke-width="3" x1="112" x2="112" y1="112" y2="287" /><line stroke="rgb(5%,5%,5%)" stroke-linecap="square" stroke-opacity="0.99" stroke-width="3" x1="112" x2="102" y1="287" y2="287" /><line stroke="rgb(5%,5%,5%)" stroke-linecap="square" stroke-opacity="0.99" stroke-width="3" x1="102" x2="102" y1="287" y2="102" /><line stroke="rgb(5%,5%,5%)" stroke-linecap="square" stroke-opacity="0.99" stroke-width="3" x1="102" x2="282" y1="102" y2="102" /><line stroke="rgb(5%,5%,5%)" stroke-linecap="square" stroke-opacity="0.99" stroke-width="3" x1="282" x2="282" y1="102" y2="92" /><line stroke="rgb(5%,5%,5%)" stroke-linecap="square" stroke-opacity="0.99" stroke-width="3" x1="282" x2="92" y1="92" y2="92" /><line stroke="rgb(5%,5%,5%)" stroke-linecap="square" stroke-opacity="0.99" stroke-width="3" x1="92" x2="92" y1="92" y2="92" /><line stroke="rgb(5%,5%,5%)" stroke-linecap="square" stroke-opacity="0.99" stroke-width="3" x1="92" x2="92" y1="92" y2="287" /><line stroke="rgb(5%,5%,5%)" stroke-linecap="square" stroke-opacity="0.99" stroke-width="3" x1="92" x2="82" y1="287" y2="287" /><line stroke="rgb(5%,5%,5%)" stroke-linecap="square" stroke-opacity="0.99" stroke-width="3" x1="82" x2="82" y1="287" y2="82" /><line stroke="rgb(5%,5%,5%)" stroke-linecap="square" stroke-opacity="0.99" stroke-width="3" x1="82" x2="282" y1="82" y2="82" /><line stroke="rgb(5%,5%,5%)" stroke-linecap="square" stroke-opacity="0.99" stroke-width="3" x1="282" x2="282" y1="82" y2="72" /><line stroke="rgb(5%,5%,5%)" stroke-linecap="square" stroke-opacity="0.99" stroke-width="3" x1="282" x2="72" y1="72" y2="72" /><line stroke="rgb(5%,5%,5%)" stroke-linecap="square" stroke-opacity="0.99" stroke-width="3" x1="72" x2="72" y1="72" y2="522" /><line stroke="rgb(5%,5%,5%)" stroke-linecap="square" stroke-opacity="0.99" stroke-width="3" x1="72" x2="522" y1="522" y2="522" /><line stroke="rgb(5%,5%,5%)" stroke-linecap="square" stroke-opacity="0.99" stroke-width="3" x1="522" x2="522" y1="522" y2="62" /><line stroke="rgb(5%,5%,5%)" stroke-linecap="square" stroke-opacity="0.99" stroke-width="3" x1="522" x2="302" y1="62" y2="62" /><line stroke="rgb(5%,5%,5%)" stroke-linecap="square" stroke-opacity="0.99" stroke-width="3" x1="302" x2="302" y1="62" y2="72" /><line stroke="rgb(5%,5%,5%)" stroke-linecap="square" stroke-opacity="0.99" stroke-width="3" x1="302" x2="512" y1="72" y2="72" /><line stroke="rgb(5%,5%,5%)" stroke-linecap="square" stroke-opacity="0.99" stroke-width="3" x1="512" x2="512" y1="72" y2="512" /><line stroke="rgb(5%,5%,5%)" stroke-linecap="square" stroke-opacity="0.99" stroke-width="3" x1="512" x2="82" y1="512" y2="512" /><line stroke="rgb(5%,5%,5%)" stroke-linecap="square" stroke-opacity="0.99" stroke-width="3" x1="82" x2="82" y1="512" y2="297" /><line stroke="rgb(5%,5%,5%)" stroke-linecap="square" stroke-opacity="0.99" stroke-width="3" x1="82" x2="92" y1="297" y2="297" /><line stroke="rgb(5%,5%,5%)" stroke-linecap="square" stroke-opacity="0.99" stroke-width="3" x1="92" x2="92" y1="297" y2="502" /><line stroke="rgb(5%,5%,5%)" stroke-linecap="square" stroke-opacity="0.99" stroke-width="3" x1="92" x2="502" y1="502" y2="502" /><line stroke="rgb(5%,5%,5%)" stroke-linecap="square" stroke-opacity="0.99" stroke-width="3" x1="502" x2="502" y1="502" y2="82" /><line stroke="rgb(5%,5%,5%)" stroke-linecap="square" stroke-opacity="0.99" stroke-width="3" x1="502" x2="292" y1="82" y2="82" /><line stroke="rgb(5%,5%,5%)" stroke-linecap="square" stroke-opacity="0.99" stroke-width="3" x1="292" x2="292" y1="82" y2="62" /><line stroke="rgb(5%,5%,5%)" stroke-linecap="square" stroke-opacity="0.99" stroke-width="3" x1="292" x2="62" y1="62" y2="62" /><line stroke="rgb(5%,5%,5%)" stroke-linecap="square" stroke-opacity="0.99" stroke-width="3" x1="62" x2="62" y1="62" y2="62" /><line stroke="rgb(5%,5%,5%)" stroke-linecap="square" stroke-opacity="0.99" stroke-width="3" x1="62" x2="62" y1="62" y2="287" /><line stroke="rgb(5%,5%,5%)" stroke-linecap="square" stroke-opacity="0.99" stroke-width="3" x1="62" x2="52" y1="287" y2="287" /><line stroke="rgb(5%,5%,5%)" stroke-linecap="square" stroke-opacity="0.99" stroke-width="3" x1="52" x2="52" y1="287" y2="52" /><line stroke="rgb(5%,5%,5%)" stroke-linecap="square" stroke-opacity="0.99" stroke-width="3" x1="52" x2="282" y1="52" y2="52" /><line stroke="rgb(5%,5%,5%)" stroke-linecap="square" stroke-opacity="0.99" stroke-width="3" x1="282" x2="282" y1="52" y2="42" /><line stroke="rgb(5%,5%,5%)" stroke-linecap="square" stroke-opacity="0.99" stroke-width="3" x1="282" x2="42" y1="42" y2="42" /><line stroke="rgb(5%,5%,5%)" stroke-linecap="square" stroke-opacity="0.99" stroke-width="3" x1="42" x2="42" y1="42" y2="552" /><line stroke="rgb(5%,5%,5%)" stroke-linecap="square" stroke-opacity="0.99" stroke-width="3" x1="42" x2="552" y1="552" y2="552" /><line stroke="rgb(5%,5%,5%)" stroke-linecap="square" stroke-opacity="0.99" stroke-width="3" x1="552" x2="552" y1="552" y2="32" /><line stroke="rgb(5%,5%,5%)" stroke-linecap="square" stroke-opacity="0.99" stroke-width="3" x1="552" x2="302" y1="32" y2="32" /><line stroke="rgb(5%,5%,5%)" stroke-linecap="square" stroke-opacity="0.99" stroke-width="3" x1="302" x2="302" y1="32" y2="42" /><line stroke="rgb(5%,5%,5%)" stroke-linecap="square" stroke-opacity="0.99" stroke-width="3" x1="302" x2="542" y1="42" y2="42" /><line stroke="rgb(5%,5%,5%)" stroke-linecap="square" stroke-opacity="0.99" stroke-width="3" x1="542" x2="542" y1="42" y2="542" /><line stroke="rgb(5%,5%,5%)" stroke-linecap="square" stroke-opacity="0.99" stroke-width="3" x1="542" x2="52" y1="542" y2="542" /><line stroke="rgb(5%,5%,5%)" stroke-linecap="square" stroke-opacity="0.99" stroke-width="3" x1="52" x2="52" y1="542" y2="297" /><line stroke="rgb(5%,5%,5%)" stroke-linecap="square" stroke-opacity="0.99" stroke-width="3" x1="52" x2="62" y1="297" y2="297" /><line stroke="rgb(5%,5%,5%)" stroke-linecap="square" stroke-opacity="0.99" stroke-width="3" x1="62" x2="62" y1="297" y2="532" /><line stroke="rgb(5%,5%,5%)" stroke-linecap="square" stroke-opacity="0.99" stroke-width="3" x1="62" x2="532" y1="532" y2="532" /><line stroke="rgb(5%,5%,5%)" stroke-linecap="square" stroke-opacity="0.99" stroke-width="3" x1="532" x2="532" y1="532" y2="52" /><line stroke="rgb(5%,5%,5%)" stroke-linecap="square" stroke-opacity="0.99" stroke-width="3" x1="532" x2="292" y1="52" y2="52" /><line stroke="rgb(5%,5%,5%)" stroke-linecap="square" stroke-opacity="0.99" stroke-width="3" x1="292" x2="292" y1="52" y2="32" /><line stroke="rgb(5%,5%,5%)" stroke-linecap="square" stroke-opacity="0.99" stroke-width="3" x1="292" x2="32" y1="32" y2="32" /><line stroke="rgb(5%,5%,5%)" stroke-linecap="square" stroke-opacity="0.99" stroke-width="3" x1="32" x2="32" y1="32" y2="32" /><line stroke="rgb(5%,5%,5%)" stroke-linecap="square" stroke-opacity="0.99" stroke-width="3" x1="32" x2="32" y1="32" y2="562" /><line stroke="rgb(5%,5%,5%)" stroke-linecap="square" stroke-opacity="0.99" stroke-width="3" x1="32" x2="287" y1="562" y2="562" /><line stroke="rgb(5%,5%,5%)" stroke-linecap="square" stroke-opacity="0.99" stroke-width="3" x1="287" x2="287" y1="562" y2="572" /><line stroke="rgb(5%,5%,5%)" stroke-linecap="square" stroke-opacity="0.99" stroke-width="3" x1="287" x2="22" y1="572" y2="572" /><line stroke="rgb(5%,5%,5%)" stroke-linecap="square" stroke-opacity="0.99" stroke-width="3" x1="22" x2="22" y1="572" y2="297" /><line stroke="rgb(5%,5%,5%)" stroke-linecap="square" stroke-opacity="0.99" stroke-width="3" x1="22" x2="12" y1="297" y2="297" /><line stroke="rgb(5%,5%,5%)" stroke-linecap="square" stroke-opacity="0.99" stroke-width="3" x1="12" x2="12" y1="297" y2="582" /><line stroke="rgb(5%,5%,5%)" stroke-linecap="square" stroke-opacity="0.99" stroke-width="3" x1="12" x2="582" y1="582" y2="582" /><line stroke="rgb(5%,5%,5%)" stroke-linecap="square" stroke-opacity="0.99" stroke-width="3" x1="582" x2="582" y1="582" y2="297" /><line stroke="rgb(5%,5%,5%)" stroke-linecap="square" stroke-opacity="0.99" stroke-width="3" x1="582" x2="572" y1="297" y2="297" /><line stroke="rgb(5%,5%,5%)" stroke-linecap="square" stroke-opacity="0.99" stroke-width="3" x1="572" x2="572" y1="297" y2="572" /><line stroke="rgb(5%,5%,5%)" stroke-linecap="square" stroke-opacity="0.99" stroke-width="3" x1="572" x2="297" y1="572" y2="572" /><line stroke="rgb(5%,5%,5%)" stroke-linecap="square" stroke-opacity="0.99" stroke-width="3" x1="297" x2="297" y1="572" y2="562" /><line stroke="rgb(5%,5%,5%)" stroke-linecap="square" stroke-opacity="0.99" stroke-width="3" x1="297" x2="562" y1="562" y2="562" /><line stroke="rgb(5%,5%,5%)" stroke-linecap="square" stroke-opacity="0.99" stroke-width="3" x1="562" x2="562" y1="562" y2="22" /><line stroke="rgb(5%,5%,5%)" stroke-linecap="square" stroke-opacity="0.99" stroke-width="3" x1="562" x2="302" y1="22" y2="22" /><line stroke="rgb(5%,5%,5%)" stroke-linecap="square" stroke-opacity="0.99" stroke-width="3" x1="302" x2="302" y1="22" y2="12" /><line stroke="rgb(5%,5%,5%)" stroke-linecap="square" stroke-opacity="0.99" stroke-width="3" x1="302" x2="572" y1="12" y2="12" /><line stroke="rgb(5%,5%,5%)" stroke-linecap="square" stroke-opacity="0.99" stroke-width="3" x1="572" x2="572" y1="12" y2="287" /><line stroke="rgb(5%,5%,5%)" stroke-linecap="square" stroke-opacity="0.99" stroke-width="3" x1="572" x2="582" y1="287" y2="287" /><line stroke="rgb(5%,5%,5%)" stroke-linecap="square" stroke-opacity="0.99" stroke-width="3" x1="582" x2="582" y1="287" y2="2" /><line stroke="rgb(5%,5%,5%)" stroke-linecap="square" stroke-opacity="0.99" stroke-width="3" x1="582" x2="292" y1="2" y2="2" /><line stroke="rgb(5%,5%,5%)" stroke-linecap="square" stroke-opacity="0.99" stroke-width="3" x1="292" x2="292" y1="2" y2="22" /><line stroke="rgb(5%,5%,5%)" stroke-linecap="square" stroke-opacity="0.99" stroke-width="3" x1="292" x2="22" y1="22" y2="22" /><line stroke="rgb(5%,5%,5%)" stroke-linecap="square" stroke-opacity="0.99" stroke-width="3" x1="22" x2="22" y1="22" y2="287" /><line stroke="rgb(5%,5%,5%)" stroke-linecap="square" stroke-opacity="0.99" stroke-width="3" x1="22" x2="12" y1="287" y2="287" /><line stroke="rgb(5%,5%,5%)" stroke-linecap="square" stroke-opacity="0.99" stroke-width="3" x1="12" x2="12" y1="287" y2="12" /><line stroke="rgb(5%,5%,5%)" stroke-linecap="square" stroke-opacity="0.99" stroke-width="3" x1="12" x2="282" y1="12" y2="12" /><line stroke="rgb(5%,5%,5%)" stroke-linecap="square" stroke-opacity="0.99" stroke-width="3" x1="282" x2="282" y1="12" y2="2" /><line stroke="rgb(5%,5%,5%)" stroke-linecap="square" stroke-opacity="0.99" stroke-width="3" x1="282" x2="2" y1="2" y2="2" /><line stroke="rgb(10%,30%,10%)" stroke-linecap="square" stroke-opacity="0.7" stroke-width="1" x1="296" x2="296" y1="296" y2="286" /><line stroke="rgb(10%,30%,10%)" stroke-linecap="square" stroke-opacity="0.7" stroke-width="1" x1="296" x2="286" y1="286" y2="286" /><line stroke="rgb(10%,30%,10%)" stroke-linecap="square" stroke-opacity="0.7" stroke-width="1" x1="286" x2="286" y1="286" y2="306" /><line stroke="rgb(10%,30%,10%)" stroke-linecap="square" stroke-opacity="0.7" stroke-width="1" x1="286" x2="306" y1="306" y2="306" /><line stroke="rgb(10%,30%,10%)" stroke-linecap="square" stroke-opacity="0.7" stroke-width="1" x1="306" x2="306" y1="306" y2="276" /><line stroke="rgb(10%,30%,10%)" stroke-linecap="square" stroke-opacity="0.7" stroke-width="1" x1="306" x2="276" y1="276" y2="276" /><line stroke="rgb(10%,30%,10%)" stroke-linecap="square" stroke-opacity="0.7" stroke-width="1" x1="276" x2="276" y1="276" y2="316" /><line stroke="rgb(10%,30%,10%)" stroke-linecap="square" stroke-opacity="0.7" stroke-width="1" x1="276" x2="316" y1="316" y2="316" /><line stroke="rgb(10%,30%,10%)" stroke-linecap="square" stroke-opacity="0.7" stroke-width="1" x1="316" x2="316" y1="316" y2="266" /><line stroke="rgb(10%,30%,10%)" stroke-linecap="square" stroke-opacity="0.7" stroke-width="1" x1="316" x2="266" y1="266" y2="266" /><line stroke="rgb(10%,30%,10%)" stroke-linecap="square" stroke-opacity="0.7" stroke-width="1" x1="266" x2="266" y1="266" y2="266" /><line stroke="rgb(10%,30%,10%)" stroke-linecap="square" stroke-opacity="0.7" stroke-width="1" x1="266" x2="266" y1="266" y2="326" /><line stroke="rgb(10%,30%,10%)" stroke-linecap="square" stroke-opacity="0.7" stroke-width="1" x1="266" x2="326" y1="326" y2="326" /><line stroke="rgb(10%,30%,10%)" stroke-linecap="square" stroke-opacity="0.7" stroke-width="1" x1="326" x2="326" y1="326" y2="256" /><line stroke="rgb(10%,30%,10%)" stroke-linecap="square" stroke-opacity="0.7" stroke-width="1" x1="326" x2="256" y1="256" y2="256" /><line stroke="rgb(10%,30%,10%)" stroke-linecap="square" stroke-opacity="0.7" stroke-width="1" x1="256" x2="256" y1="256" y2="336" /><line stroke="rgb(10%,30%,10%)" stroke-linecap="square" stroke-opacity="0.7" stroke-width="1" x1="256" x2="336" y1="336" y2="336" /><line stroke="rgb(10%,30%,10%)" stroke-linecap="square" stroke-opacity="0.7" stroke-width="1" x1="336" x2="336" y1="336" y2="246" /><line stroke="rgb(10%,30%,10%)" stroke-linecap="square" stroke-opacity="0.7" stroke-width="1" x1="336" x2="246" y1="246" y2="246" /><line stroke="rgb(10%,30%,10%)" stroke-linecap="square" stroke-opacity="0.7" stroke-width="1" x1="246" x2="246" y1="246" y2="246" /><line stroke="rgb(10%,30%,10%)" stroke-linecap="square" stroke-opacity="0.7" stroke-width="1" x1="246" x2="246" y1="246" y2="346" /><line stroke="rgb(10%,30%,10%)" stroke-linecap="square" stroke-opacity="0.7" stroke-width="1" x1="246" x2="346" y1="346" y2="346" /><line stroke="rgb(10%,30%,10%)" stroke-linecap="square" stroke-opacity="0.7" stroke-width="1" x1="346" x2="346" y1="346" y2="236" /><line stroke="rgb(10%,30%,10%)" stroke-linecap="square" stroke-opacity="0.7" stroke-width="1" x1="346" x2="236" y1="236" y2="236" /><line stroke="rgb(10%,30%,10%)" stroke-linecap="square" stroke-opacity="0.7" stroke-width="1" x1="236" x2="236" y1="236" y2="356" /><line stroke="rgb(10%,30%,10%)" stroke-linecap="square" stroke-opacity="0.7" stroke-width="1" x1="236" x2="356" y1="356" y2="356" /><line stroke="rgb(10%,30%,10%)" stroke-linecap="square" stroke-opacity="0.7" stroke-width="1" x1="356" x2="356" y1="356" y2="226" /><line stroke="rgb(10%,30%,10%)" stroke-linecap="square" stroke-opacity="0.7" stroke-width="1" x1="356" x2="226" y1="226" y2="226" /><line stroke="rgb(10%,30%,10%)" stroke-linecap="square" stroke-opacity="0.7" stroke-width="1" x1="226" x2="226" y1="226" y2="226" /><line stroke="rgb(10%,30%,10%)" stroke-linecap="square" stroke-opacity="0.7" stroke-width="1" x1="226" x2="226" y1="226" y2="366" /><line stroke="rgb(10%,30%,10%)" stroke-linecap="square" stroke-opacity="0.7" stroke-width="1" x1="226" x2="286" y1="366" y2="366" /><line stroke="rgb(10%,30%,10%)" stroke-linecap="square" stroke-opacity="0.7" stroke-width="1" x1="286" x2="286" y1="366" y2="406" /><line stroke="rgb(10%,30%,10%)" stroke-linecap="square" stroke-opacity="0.7" stroke-width="1" x1="286" x2="406" y1="406" y2="406" /><line stroke="rgb(10%,30%,10%)" stroke-linecap="square" stroke-opacity="0.7" stroke-width="1" x1="406" x2="406" y1="406" y2="176" /><line stroke="rgb(10%,30%,10%)" stroke-linecap="square" stroke-opacity="0.7" stroke-width="1" x1="406" x2="176" y1="176" y2="176" /><line stroke="rgb(10%,30%,10%)" stroke-linecap="square" stroke-opacity="0.7" stroke-width="1" x1="176" x2="176" y1="176" y2="176" /><line stroke="rgb(10%,30%,10%)" stroke-linecap="square" stroke-opacity="0.7" stroke-width="1" x1="176" x2="176" y1="176" y2="416" /><line stroke="rgb(10%,30%,10%)" stroke-linecap="square" stroke-opacity="0.7" stroke-width="1" x1="176" x2="416" y1="416" y2="416" /><line stroke="rgb(10%,30%,10%)" stroke-linecap="square" stroke-opacity="0.7" stroke-width="1" x1="416" x2="416" y1="416" y2="166" /><line stroke="rgb(10%,30%,10%)" stroke-linecap="square" stroke-opacity="0.7" stroke-width="1" x1="416" x2="166" y1="166" y2="166" /><line stroke="rgb(10%,30%,10%)" stroke-linecap="square" stroke-opacity="0.7" stroke-width="1" x1="166" x2="166" y1="166" y2="426" /><line stroke="rgb(10%,30%,10%)" stroke-linecap="square" stroke-opacity="0.7" stroke-width="1" x1="166" x2="426" y1="426" y2="426" /><line stroke="rgb(10%,30%,10%)" stroke-linecap="square" stroke-opacity="0.7" stroke-width="1" x1="426" x2="426" y1="426" y2="156" /><line stroke="rgb(10%,30%,10%)" stroke-linecap="square" stroke-opacity="0.7" stroke-width="1" x1="426" x2="156" y1="156" y2="156" /><line stroke="rgb(10%,30%,10%)" stroke-linecap="square" stroke-opacity="0.7" stroke-width="1" x1="156" x2="156" y1="156" y2="156" /><line stroke="rgb(10%,30%,10%)" stroke-linecap="square" stroke-opacity="0.7" stroke-width="1" x1="156" x2="156" y1="156" y2="436" /><line stroke="rgb(10%,30%,10%)" stroke-linecap="square" stroke-opacity="0.7" stroke-width="1" x1="156" x2="436" y1="436" y2="436" /><line stroke="rgb(10%,30%,10%)" stroke-linecap="square" stroke-opacity="0.7" stroke-width="1" x1="436" x2="436" y1="436" y2="146" /><line stroke="rgb(10%,30%,10%)" stroke-linecap="square" stroke-opacity="0.7" stroke-width="1" x1="436" x2="146" y1="146" y2="146" /><line stroke="rgb(10%,30%,10%)" stroke-linecap="square" stroke-opacity="0.7" stroke-width="1" x1="146" x2="146" y1="146" y2="291" /><line stroke="rgb(10%,30%,10%)" stroke-linecap="square" stroke-opacity="0.7" stroke-width="1" x1="146" x2="126" y1="291" y2="291" /><line stroke="rgb(10%,30%,10%)" stroke-linecap="square" stroke-opacity="0.7" stroke-width="1" x1="126" x2="126" y1="291" y2="126" /><line stroke="rgb(10%,30%,10%)" stroke-linecap="square" stroke-opacity="0.7" stroke-width="1" x1="126" x2="126" y1="126" y2="126" /><line stroke="rgb(10%,30%,10%)" stroke-linecap="square" stroke-opacity="0.7" stroke-width="1" x1="126" x2="126" y1="126" y2="466" /><line stroke="rgb(10%,30%,10%)" stroke-linecap="square" stroke-opacity="0.7" stroke-width="1" x1="126" x2="466" y1="466" y2="466" /><line stroke="rgb(10%,30%,10%)" stroke-linecap="square" stroke-opacity="0.7" stroke-width="1" x1="466" x2="466" y1="466" y2="116" /><line stroke="rgb(10%,30%,10%)" stroke-linecap="square" stroke-opacity="0.7" stroke-width="1" x1="466" x2="116" y1="116" y2="116" /><line stroke="rgb(10%,30%,10%)" stroke-linecap="square" stroke-opacity="0.7" stroke-width="1" x1="116" x2="116" y1="116" y2="291" /><line stroke="rgb(10%,30%,10%)" stroke-linecap="square" stroke-opacity="0.7" stroke-width="1" x1="116" x2="96" y1="291" y2="291" /><line stroke="rgb(10%,30%,10%)" stroke-linecap="square" stroke-opacity="0.7" stroke-width="1" x1="96" x2="96" y1="291" y2="96" /><line stroke="rgb(10%,30%,10%)" stroke-linecap="square" stroke-opacity="0.7" stroke-width="1" x1="96" x2="96" y1="96" y2="96" /><line stroke="rgb(10%,30%,10%)" stroke-linecap="square" stroke-opacity="0.7" stroke-width="1" x1="96" x2="96" y1="96" y2="291" /><line stroke="rgb(10%,30%,10%)" stroke-linecap="square" stroke-opacity="0.7" stroke-width="1" x1="96" x2="96" y1="291" y2="496" /><line stroke="rgb(10%,30%,10%)" stroke-linecap="square" stroke-opacity="0.7" stroke-width="1" x1="96" x2="496" y1="496" y2="496" /><line stroke="rgb(10%,30%,10%)" stroke-linecap="square" stroke-opacity="0.7" stroke-width="1" x1="496" x2="496" y1="496" y2="86" /><line stroke="rgb(10%,30%,10%)" stroke-linecap="square" stroke-opacity="0.7" stroke-width="1" x1="496" x2="286" y1="86" y2="86" /><line stroke="rgb(10%,30%,10%)" stroke-linecap="square" stroke-opacity="0.7" stroke-width="1" x1="286" x2="286" y1="86" y2="66" /><line stroke="rgb(10%,30%,10%)" stroke-linecap="square" stroke-opacity="0.7" stroke-width="1" x1="286" x2="66" y1="66" y2="66" /><line stroke="rgb(10%,30%,10%)" stroke-linecap="square" stroke-opacity="0.7" stroke-width="1" x1="66" x2="66" y1="66" y2="66" /><line stroke="rgb(10%,30%,10%)" stroke-linecap="square" stroke-opacity="0.7" stroke-width="1" x1="66" x2="66" y1="66" y2="291" /><line stroke="rgb(10%,30%,10%)" stroke-linecap="square" stroke-opacity="0.7" stroke-width="1" x1="66" x2="66" y1="291" y2="526" /><line stroke="rgb(10%,30%,10%)" stroke-linecap="square" stroke-opacity="0.7" stroke-width="1" x1="66" x2="526" y1="526" y2="526" /><line stroke="rgb(10%,30%,10%)" stroke-linecap="square" stroke-opacity="0.7" stroke-width="1" x1="526" x2="526" y1="526" y2="56" /><line stroke="rgb(10%,30%,10%)" stroke-linecap="square" stroke-opacity="0.7" stroke-width="1" x1="526" x2="286" y1="56" y2="56" /><line stroke="rgb(10%,30%,10%)" stroke-linecap="square" stroke-opacity="0.7" stroke-width="1" x1="286" x2="286" y1="56" y2="36" /><line stroke="rgb(10%,30%,10%)" stroke-linecap="square" stroke-opacity="0.7" stroke-width="1" x1="286" x2="36" y1="36" y2="36" /><line stroke="rgb(10%,30%,10%)" stroke-linecap="square" stroke-opacity="0.7" stroke-width="1" x1="36" x2="36" y1="36" y2="36" /><line stroke="rgb(10%,30%,10%)" stroke-linecap="square" stroke-opacity="0.7" stroke-width="1" x1="36" x2="36" y1="36" y2="556" /><line stroke="rgb(10%,30%,10%)" stroke-linecap="square" stroke-opacity="0.7" stroke-width="1" x1="36" x2="556" y1="556" y2="556" /><line stroke="rgb(10%,30%,10%)" stroke-linecap="square" stroke-opacity="0.7" stroke-width="1" x1="556" x2="556" y1="556" y2="26" /><line stroke="rgb(10%,30%,10%)" stroke-linecap="square" stroke-opacity="0.7" stroke-width="1" x1="556" x2="26" y1="26" y2="26" /><line stroke="rgb(10%,30%,10%)" stroke-linecap="square" stroke-opacity="0.7" stroke-width="1" x1="26" x2="26" y1="26" y2="291" /><line stroke="rgb(10%,30%,10%)" stroke-linecap="square" stroke-opacity="0.7" stroke-width="1" x1="26" x2="6" y1="291" y2="291" /><line stroke="rgb(10%,30%,10%)" stroke-linecap="square" stroke-opacity="0.7" stroke-width="1" x1="6" x2="6" y1="291" y2="6" /><line stroke="rgb(5%,5%,5%)" stroke-linecap="square" stroke-opacity="0.0" stroke-width="1" x1="0" x2="583" y1="0" y2="583" /></svg>