<?xml version="1.0" encoding="utf-8" ?>
<svg baseProfile="full" height="100%" version="1.1" width="100%" xmlns="http://www.w3.org/2000/svg" xmlns:ev="http://www.w3.org/2001/xml-events" xmlns:xlink="http://www.w3.org/1999/xlink"><defs /><line stroke="rgb(5%,5%,5%)" stroke-linecap="square" stroke-opacity="0.99" stroke-width="3" x1="132" x2="132" y1="132" y2="142" /><line stroke="rgb(5%,5%,5%)" stroke-linecap="square" stroke-opacity="0.99" stroke-width="3" x1="132" x2="142" y1="142" y2="142" /><line stroke="rgb(5%,5%,5%)" stroke-linecap="square" stroke-opacity="0.99" stroke-width="3" x1="142" x2="142" y1="142" y2="122" /><line stroke="rgb(5%,5%,5%)" stroke-linecap="square" stroke-opacity="0.99" stroke-width="3" x1="142" x2="122" y1="122" y2="122" /><line stroke="rgb(5%,5%,5%)" stroke-linecap="square" stroke-opacity="0.99" stroke-width="3" x1="122" x2="122" y1="122" y2="152" /><line stroke="rgb(5%,5%,5%)" stroke-linecap="square" stroke-opacity="0.99" stroke-width="3" x1="122" x2="152" y1="152" y2="152" /><line stroke="rgb(5%,5%,5%)" stroke-linecap="square" stroke-opacity="0.99" stroke-width="3" x1="152" x2="152" y1="152" y2="112" /><line stroke="rgb(5%,5%,5%)" stroke-linecap="square" stroke-opacity="0.99" stroke-width="3" x1="152" x2="112" y1="112" y2="112" /><line stroke="rgb(5%,5%,5%)" stroke-linecap="square" stroke-opacity="0.99" stroke-width="3" x1="112" x2="112" y1="112" y2="162" /><line stroke="rgb(5%,5%,5%)" stroke-linecap="square" stroke-opacity="0.99" stroke-width="3" x1="112" x2="162" y1="162" y2="162" /><line stroke="rgb(5%,5%,5%)" stroke-linecap="square" stroke-opacity="0.99" stroke-width="3" x1="162" x2="162" y1="162" y2="102" /><line stroke="rgb(5%,5%,5%)" stroke-linecap="square" stroke-opacity="0.99" stroke-width="3" x1="162" x2="102" y1="102" y2="102" /><line stroke="rgb(5%,5%,5%)" stroke-linecap="square" stroke-opacity="0.99" stroke-width="3" x1="102" x2="102" y1="102" y2="102" /><line stroke="rgb(5%,5%,5%)" stroke-linecap="square" stroke-opacity="0.99" stroke-width="3" x1="102" x2="102" y1="102" y2="127" /><line stroke="rgb(5%,5%,5%)" stroke-linecap="square" stroke-opacity="0.99" stroke-width="3" x1="102" x2="92" y1="127" y2="127" /><line stroke="rgb(5%,5%,5%)" stroke-linecap="square" stroke-opacity="0.99" stroke-width="3" x1="92" x2="92" y1="127" y2="92" /><line stroke="rgb(5%,5%,5%)" stroke-linecap="square" stroke-opacity="0.99" stroke-width="3" x1="92" x2="122" y1="92" y2="92" /><line stroke="rgb(5%,5%,5%)" stroke-linecap="square" stroke-opacity="0.99" stroke-width="3" x1="122" x2="122" y1="92" y2="82" /><line stroke="rgb(5%,5%,5%)" stroke-linecap="square" stroke-opacity="0.99" stroke-width="3" x1="122" x2="82" y1="82" y2="82" /><line stroke="rgb(5%,5%,5%)" stroke-linecap="square" stroke-opacity="0.99" stroke-width="3" x1="82" x2="82" y1="82" y2="192" /><line stroke="rgb(5%,5%,5%)" stroke-linecap="square" stroke-opacity="0.99" stroke-width="3" x1="82" x2="192" y1="192" y2="192" /><line stroke="rgb(5%,5%,5%)" stroke-linecap="square" stroke-opacity="0.99" stroke-width="3" x1="192" x2="192" y1="192" y2="72" /><line stroke="rgb(5%,5%,5%)" stroke-linecap="square" stroke-opacity="0.99" stroke-width="3" x1="192" x2="142" y1="72" y2="72" /><line stroke="rgb(5%,5%,5%)" stroke-linecap="square" stroke-opacity="0.99" stroke-width="3" x1="142" x2="142" y1="72" y2="82" /><line stroke="rgb(5%,5%,5%)" stroke-linecap="square" stroke-opacity="0.99" stroke-width="3" x1="142" x2="182" y1="82" y2="82" /><line stroke="rgb(5%,5%,5%)" stroke-linecap="square" stroke-opacity="0.99" stroke-width="3" x1="182" x2="182" y1="82" y2="182" /><line stroke="rgb(5%,5%,5%)" stroke-linecap="square" stroke-opacity="0.99" stroke-width="3" x1="182" x2="92" y1="182" y2="182" /><line stroke="rgb(5%,5%,5%)" stroke-linecap="square" stroke-opacity="0.99" stroke-width="3" x1="92" x2="92" y1="182" y2="137" /><line stroke="rgb(5%,5%,5%)" stroke-linecap="square" stroke-opacity="0.99" stroke-width="3" x1="92" x2="102" y1="137" y2="137" /><line stroke="rgb(5%,5%,5%)" stroke-linecap="square" stroke-opacity="0.99" stroke-width="3" x1="102" x2="102" y1="137" y2="172" /><line stroke="rgb(5%,5%,5%)" stroke-linecap="square" stroke-opacity="0.99" stroke-width="3" x1="102" x2="172" y1="172" y2="172" /><line stroke="rgb(5%,5%,5%)" stroke-linecap="square" stroke-opacity="0.99" stroke-width="3" x1="172" x2="172" y1="172" y2="92" /><line stroke="rgb(5%,5%,5%)" stroke-linecap="square" stroke-opacity="0.99" stroke-width="3" x1="172" x2="132" y1="92" y2="92" /><line stroke="rgb(5%,5%,5%)" stroke-linecap="square" stroke-opacity="0.99" stroke-width="3" x1="132" x2="132" y1="92" y2="72" /><line stroke="rgb(5%,5%,5%)" stroke-linecap="square" stroke-opacity="0.99" stroke-width="3" x1="132" x2="72" y1="72" y2="72" /><line stroke="rgb(5%,5%,5%)" stroke-linecap="square" stroke-opacity="0.99" stroke-width="3" x1="72" x2="72" y1="72" y2="72" /><line stroke="rgb(5%,5%,5%)" stroke-linecap="square" stroke-opacity="0.99" stroke-width="3" x1="72" x2="72" y1="72" y2="202" /><line stroke="rgb(5%,5%,5%)" stroke-linecap="square" stroke-opacity="0.99" stroke-width="3" x1="72" x2="202" y1="202" y2="202" /><line stroke="rgb(5%,5%,5%)" stroke-linecap="square" stroke-opacity="0.99" stroke-width="3" x1="202" x2="202" y1="202" y2="62" /><line stroke="rgb(5%,5%,5%)" stroke-linecap="square" stroke-opacity="0.99" stroke-width="3" x1="202" x2="62" y1="62" y2="62" /><line stroke="rgb(5%,5%,5%)" stroke-linecap="square" stroke-opacity="0.99" stroke-width="3" x1="62" x2="62" y1="62" y2="212" /><line stroke="rgb(5%,5%,5%)" stroke-linecap="square" stroke-opacity="0.99" stroke-width="3" x1="62" x2="212" y1="212" y2="212" /><line stroke="rgb(5%,5%,5%)" stroke-linecap="square" stroke-opacity="0.99" stroke-width="3" x1="212" x2="212" y1="212" y2="52" /><line stroke="rgb(5%,5%,5%)" stroke-linecap="square" stroke-opacity="0.99" stroke-width="3" x1="212" x2="52" y1="52" y2="52" /><line stroke="rgb(5%,5%,5%)" stroke-linecap="square" stroke-opacity="0.99" stroke-width="3" x1="52" x2="52" y1="52" y2="52" /><line stroke="rgb(5%,5%,5%)" stroke-linecap="square" stroke-opacity="0.99" stroke-width="3" x1="52" x2="52" y1="52" y2="132" /><line stroke="rgb(5%,5%,5%)" stroke-linecap="square" stroke-opacity="0.99" stroke-width="3" x1="52" x2="22" y1="132" y2="132" /><line stroke="rgb(5%,5%,5%)" stroke-linecap="square" stroke-opacity="0.99" stroke-width="3" x1="22" x2="22" y1="132" y2="22" /><line stroke="rgb(5%,5%,5%)" stroke-linecap="square" stroke-opacity="0.99" stroke-width="3" x1="22" x2="122" y1="22" y2="22" /><line stroke="rgb(5%,5%,5%)" stroke-linecap="square" stroke-opacity="0.99" stroke-width="3" x1="122" x2="122" y1="22" y2="32" /><line stroke="rgb(5%,5%,5%)" stroke-linecap="square" stroke-opacity="0.99" stroke-width="3" x1="122" x2="32" y1="32" y2="32" /><line stroke="rgb(5%,5%,5%)" stroke-linecap="square" stroke-opacity="0.99" stroke-width="3" x1="32" x2="32" y1="32" y2="122" /><line stroke="rgb(5%,5%,5%)" stroke-linecap="square" stroke-opacity="0.99" stroke-width="3" x1="32" x2="42" y1="122" y2="122" /><line stroke="rgb(5%,5%,5%)" stroke-linecap="square" stroke-opacity="0.99" stroke-width="3" x1="42" x2="42" y1="122" y2="42" /><line stroke="rgb(5%,5%,5%)" stroke-linecap="square" stroke-opacity="0.99" stroke-width="3" x1="42" x2="132" y1="42" y2="42" /><line stroke="rgb(5%,5%,5%)" stroke-linecap="square" stroke-opacity="0.99" stroke-width="3" x1="132" x2="132" y1="42" y2="22" /><line stroke="rgb(5%,5%,5%)" stroke-linecap="square" stroke-opacity="0.99" stroke-width="3" x1="132" x2="242" y1="22" y2="22" /><line stroke="rgb(5%,5%,5%)" stroke-linecap="square" stroke-opacity="0.99" stroke-width="3" x1="242" x2="242" y1="22" y2="122" /><line stroke="rgb(5%,5%,5%)" stroke-linecap="square" stroke-opacity="0.99" stroke-width="3" x1="242" x2="232" y1="122" y2="122" /><line stroke="rgb(5%,5%,5%)" stroke-linecap="square" stroke-opacity="0.99" stroke-width="3" x1="232" x2="232" y1="122" y2="32" /><line stroke="rgb(5%,5%,5%)" stroke-linecap="square" stroke-opacity="0.99" stroke-width="3" x1="232" x2="142" y1="32" y2="32" /><line stroke="rgb(5%,5%,5%)" stroke-linecap="square" stroke-opacity="0.99" stroke-width="3" x1="142" x2="142" y1="32" y2="42" /><line stroke="rgb(5%,5%,5%)" stroke-linecap="square" stroke-opacity="0.99" stroke-width="3" x1="142" x2="222" y1="42" y2="42" /><line stroke="rgb(5%,5%,5%)" stroke-linecap="square" stroke-opacity="0.99" stroke-width="3" x1="222" x2="222" y1="42" y2="222" /><line stroke="rgb(5%,5%,5%)" stroke-linecap="square" stroke-opacity="0.99" stroke-width="3" x1="222" x2="132" y1="222" y2="222" /><line stroke="rgb(5%,5%,5%)" stroke-linecap="square" stroke-opacity="0.99" stroke-width="3" x1="132" x2="132" y1="222" y2="252" /><line stroke="rgb(5%,5%,5%)" stroke-linecap="square" stroke-opacity="0.99" stroke-width="3" x1="132" x2="252" y1="252" y2="252" /><line stroke="rgb(5%,5%,5%)" stroke-linecap="square" stroke-opacity="0.99" stroke-width="3" x1="252" x2="252" y1="252" y2="142" /><line stroke="rgb(5%,5%,5%)" stroke-linecap="square" stroke-opacity="0.99" stroke-width="3" x1="252" x2="242" y1="142" y2="142" /><line stroke="rgb(5%,5%,5%)" stroke-linecap="square" stroke-opacity="0.99" stroke-width="3" x1="242" x2="242" y1="142" y2="242" /><line stroke="rgb(5%,5%,5%)" stroke-linecap="square" stroke-opacity="0.99" stroke-width="3" x1="242" x2="142" y1="242" y2="242" /><line stroke="rgb(5%,5%,5%)" stroke-linecap="square" stroke-opacity="0.99" stroke-width="3" x1="142" x2="142" y1="242" y2="232" /><line stroke="rgb(5%,5%,5%)" stroke-linecap="square" stroke-opacity="0.99" stroke-width="3" x1="142" x2="232" y1="232" y2="232" /><line stroke="rgb(5%,5%,5%)" stroke-linecap="square" stroke-opacity="0.99" stroke-width="3" x1="232" x2="232" y1="232" y2="132" /><line stroke="rgb(5%,5%,5%)" stroke-linecap="square" stroke-opacity="0.99" stroke-width="3" x1="232" x2="252" y1="132" y2="132" /><line stroke="rgb(5%,5%,5%)" stroke-linecap="square" stroke-opacity="0.99" stroke-width="3" x1="252" x2="252" y1="132" y2="12" /><line stroke="rgb(5%,5%,5%)" stroke-linecap="square" stroke-opacity="0.99" stroke-width="3" x1="252" x2="12" y1="12" y2="12" /><line stroke="rgb(5%,5%,5%)" stroke-linecap="square" stroke-opacity="0.99" stroke-width="3" x1="12" x2="12" y1="12" y2="262" /><line stroke="rgb(5%,5%,5%)" stroke-linecap="square" stroke-opacity="0.99" stroke-width="3" x1="12" x2="112" y1="262" y2="262" /><line stroke="rgb(5%,5%,5%)" stroke-linecap="square" stroke-opacity="0.99" stroke-width="3" x1="112" x2="112" y1="262" y2="252" /><line stroke="rgb(5%,5%,5%)" stroke-linecap="square" stroke-opacity="0.99" stroke-width="3" x1="112" x2="22" y1="252" y2="252" /><line stroke="rgb(5%,5%,5%)" stroke-linecap="square" stroke-opacity="0.99" stroke-width="3" x1="22" x2="22" y1="252" y2="142" /><line stroke="rgb(5%,5%,5%)" stroke-linecap="square" stroke-opacity="0.99" stroke-width="3" x1="22" x2="32" y1="142" y2="142" /><line stroke="rgb(5%,5%,5%)" stroke-linecap="square" stroke-opacity="0.99" stroke-width="3" x1="32" x2="32" y1="142" y2="242" /><line stroke="rgb(5%,5%,5%)" stroke-linecap="square" stroke-opacity="0.99" stroke-width="3" x1="32" x2="112" y1="242" y2="242" /><line stroke="rgb(5%,5%,5%)" stroke-linecap="square" stroke-opacity="0.99" stroke-width="3" x1="112" x2="112" y1="242" y2="232" /><line stroke="rgb(5%,5%,5%)" stroke-linecap="square" stroke-opacity="0.99" stroke-width="3" x1="112" x2="42" y1="232" y2="232" /><line stroke="rgb(5%,5%,5%)" stroke-linecap="square" stroke-opacity="0.99" stroke-width="3" x1="42" x2="42" y1="232" y2="142" /><line stroke="rgb(5%,5%,5%)" stroke-linecap="square" stroke-opacity="0.99" stroke-width="3" x1="42" x2="52" y1="142" y2="142" /><line stroke="rgb(5%,5%,5%)" stroke-linecap="square" stroke-opacity="0.99" stroke-width="3" x1="52" x2="52" y1="142" y2="222" /><line stroke="rgb(5%,5%,5%)" stroke-linecap="square" stroke-opacity="0.99" stroke-width="3" x1="52" x2="122" y1="222" y2="222" /><line stroke="rgb(5%,5%,5%)" stroke-linecap="square" stroke-opacity="0.99" stroke-width="3" x1="122" x2="122" y1="222" y2="262" /><line stroke="rgb(5%,5%,5%)" stroke-linecap="square" stroke-opacity="0.99" stroke-width="3" x1="122" x2="262" y1="262" y2="262" /><line stroke="rgb(5%,5%,5%)" stroke-linecap="square" stroke-opacity="0.99" stroke-width="3" x1="262" x2="262" y1="262" y2="2" /><line stroke="rgb(5%,5%,5%)" stroke-linecap="square" stroke-opacity="0.99" stroke-width="3" x1="262" x2="2" y1="2" y2="2" /><line stroke="rgb(10%,30%,10%)" stroke-linecap="square" stroke-opacity="0.7" stroke-width="1" x1="136" x2="136" y1="136" y2="126" /><line stroke="rgb(10%,30%,10%)" stroke-linecap="square" stroke-opacity="0.7" stroke-width="1" x1="136" x2="126" y1="126" y2="126" /><line stroke="rgb(10%,30%,10%)" stroke-linecap="square" stroke-opacity="0.7" stroke-width="1" x1="126" x2="126" y1="126" y2="146" /><line stroke="rgb(10%,30%,10%)" stroke-linecap="square" stroke-opacity="0.7" stroke-width="1" x1="126" x2="146" y1="146" y2="146" /><line stroke="rgb(10%,30%,10%)" stroke-linecap="square" stroke-opacity="0.7" stroke-width="1" x1="146" x2="146" y1="146" y2="116" /><line stroke="rgb(10%,30%,10%)" stroke-linecap="square" stroke-opacity="0.7" stroke-width="1" x1="146" x2="116" y1="116" y2="116" /><line stroke="rgb(10%,30%,10%)" stroke-linecap="square" stroke-opacity="0.7" stroke-width="1" x1="116" x2="116" y1="116" y2="156" /><line stroke="rgb(10%,30%,10%)" stroke-linecap="square" stroke-opacity="0.7" stroke-width="1" x1="116" x2="156" y1="156" y2="156" /><line stroke="rgb(10%,30%,10%)" stroke-linecap="square" stroke-opacity="0.7" stroke-width="1" x1="156" x2="156" y1="156" y2="106" /><line stroke="rgb(10%,30%,10%)" stroke-linecap="square" stroke-opacity="0.7" stroke-width="1" x1="156" x2="106" y1="106" y2="106" /><line stroke="rgb(10%,30%,10%)" stroke-linecap="square" stroke-opacity="0.7" stroke-width="1" x1="106" x2="106" y1="106" y2="106" /><line stroke="rgb(10%,30%,10%)" stroke-linecap="square" stroke-opacity="0.7" stroke-width="1" x1="106" x2="106" y1="106" y2="131" /><line stroke="rgb(10%,30%,10%)" stroke-linecap="square" stroke-opacity="0.7" stroke-width="1" x1="106" x2="106" y1="131" y2="166" /><line stroke="rgb(10%,30%,10%)" stroke-linecap="square" stroke-opacity="0.7" stroke-width="1" x1="106" x2="166" y1="166" y2="166" /><line stroke="rgb(10%,30%,10%)" stroke-linecap="square" stroke-opacity="0.7" stroke-width="1" x1="166" x2="166" y1="166" y2="96" /><line stroke="rgb(10%,30%,10%)" stroke-linecap="square" stroke-opacity="0.7" stroke-width="1" x1="166" x2="126" y1="96" y2="96" /><line stroke="rgb(10%,30%,10%)" stroke-linecap="square" stroke-opacity="0.7" stroke-width="1" x1="126" x2="126" y1="96" y2="76" /><line stroke="rgb(10%,30%,10%)" stroke-linecap="square" stroke-opacity="0.7" stroke-width="1" x1="126" x2="76" y1="76" y2="76" /><line stroke="rgb(10%,30%,10%)" stroke-linecap="square" stroke-opacity="0.7" stroke-width="1" x1="76" x2="76" y1="76" y2="76" /><line stroke="rgb(10%,30%,10%)" stroke-linecap="square" stroke-opacity="0.7" stroke-width="1" x1="76" x2="76" y1="76" y2="196" /><line stroke="rgb(10%,30%,10%)" stroke-linecap="square" stroke-opacity="0.7" stroke-width="1" x1="76" x2="196" y1="196" y2="196" /><line stroke="rgb(10%,30%,10%)" stroke-linecap="square" stroke-opacity="0.7" stroke-width="1" x1="196" x2="196" y1="196" y2="66" /><line stroke="rgb(10%,30%,10%)" stroke-linecap="square" stroke-opacity="0.7" stroke-width="1" x1="196" x2="66" y1="66" y2="66" /><line stroke="rgb(10%,30%,10%)" stroke-linecap="square" stroke-opacity="0.7" stroke-width="1" x1="66" x2="66" y1="66" y2="206" /><line stroke="rgb(10%,30%,10%)" stroke-linecap="square" stroke-opacity="0.7" stroke-width="1" x1="66" x2="206" y1="206" y2="206" /><line stroke="rgb(10%,30%,10%)" stroke-linecap="square" stroke-opacity="0.7" stroke-width="1" x1="206" x2="206" y1="206" y2="56" /><line stroke="rgb(10%,30%,10%)" stroke-linecap="square" stroke-opacity="0.7" stroke-width="1" x1="206" x2="56" y1="56" y2="56" /><line stroke="rgb(10%,30%,10%)" stroke-linecap="square" stroke-opacity="0.7" stroke-width="1" x1="56" x2="56" y1="56" y2="56" /><line stroke="rgb(10%,30%,10%)" stroke-linecap="square" stroke-opacity="0.7" stroke-width="1" x1="56" x2="56" y1="56" y2="216" /><line stroke="rgb(10%,30%,10%)" stroke-linecap="square" stroke-opacity="0.7" stroke-width="1" x1="56" x2="126" y1="216" y2="216" /><line stroke="rgb(10%,30%,10%)" stroke-linecap="square" stroke-opacity="0.7" stroke-width="1" x1="126" x2="126" y1="216" y2="256" /><line stroke="rgb(10%,30%,10%)" stroke-linecap="square" stroke-opacity="0.7" stroke-width="1" x1="126" x2="256" y1="256" y2="256" /><line stroke="rgb(10%,30%,10%)" stroke-linecap="square" stroke-opacity="0.7" stroke-width="1" x1="256" x2="256" y1="256" y2="6" /><line stroke="rgb(10%,30%,10%)" stroke-linecap="square" stroke-opacity="0.7" stroke-width="1" x1="256" x2="6" y1="6" y2="6" /><line stroke="rgb(5%,5%,5%)" stroke-linecap="square" stroke-opacity="0.0" stroke-width="1" x1="0" x2="263" y1="0" y2="263" /></svg>